<?xml version="1.0" encoding="UTF-8" standalone="no"?>
<!DOCTYPE svg PUBLIC "-//W3C//DTD SVG 1.1//EN" "http://www.w3.org/Graphics/SVG/1.1/DTD/svg11.dtd">
<svg width="100%" height="100%" viewBox="0 0 225 191" version="1.1" xmlns="http://www.w3.org/2000/svg" xmlns:xlink="http://www.w3.org/1999/xlink" xml:space="preserve" xmlns:serif="http://www.serif.com/" style="fill-rule:evenodd;clip-rule:evenodd;stroke-linecap:round;stroke-linejoin:round;stroke-miterlimit:1.5;">
    <g transform="matrix(1,0,0,1,-2183.09,-158.673)">
        <g transform="matrix(0.728034,0,0,0.847,593.726,53.359)">
            <rect x="2183.09" y="124.338" width="308.195" height="224.415" style="fill:none;"/>
            <g transform="matrix(0.489867,1.29112e-17,-1.50209e-17,0.421062,1146.75,-85.1747)">
                <g transform="matrix(0.768028,1.65529e-18,1.65529e-18,0.822011,1173.17,463.917)">
                    <path d="M1682.82,343.286C1417.31,301.097 1406.35,528.3 1464.5,593.46C1510.94,645.508 1595.61,663.896 1668.87,658.547C1736.76,653.589 1820.45,633.724 1830.3,535.733C1833.08,508.002 1825.43,365.948 1682.82,343.286Z" style="fill:white;stroke:white;stroke-width:42.3px;"/>
                </g>
                <g transform="matrix(0.692139,-0.141032,0.141032,0.692139,1268.44,751.771)">
                    <path d="M1754.23,292.909C1754.23,292.909 1674.46,181.116 1748.59,35.28C1766.48,0.086 1834.67,146.105 1825.61,204.326C1822.01,227.44 1775.47,286.692 1754.23,292.909C1748.5,294.584 1810.22,228.285 1888.34,220.317C1933.47,215.713 1984.07,247.567 2030.3,279.405C2062.94,301.884 1802.11,342.899 1754.23,292.909Z" style="fill:none;stroke:white;stroke-width:47.63px;"/>
                </g>
                <g transform="matrix(0.482651,5.36143e-33,-5.36143e-33,0.482651,1663.53,620.878)">
                    <path d="M1662.72,432.958C1638.46,447.871 1624.43,522.773 1666.86,511.251C1697.44,502.946 1698.87,435.841 1666.48,431.43" style="fill:white;stroke:rgb(48,48,64);stroke-width:104.57px;"/>
                </g>
                <g transform="matrix(0.39809,1.08162e-32,-1.08162e-32,0.39809,1686.72,657.36)">
                    <path d="M1662.72,432.958C1638.46,447.871 1624.43,522.773 1666.86,511.251C1697.44,502.946 1698.87,435.841 1666.48,431.43" style="fill:white;stroke:rgb(48,48,64);stroke-width:126.78px;"/>
                </g>
            </g>
        </g>
    </g>
</svg>
